<svg width="180" height="65" viewBox="0 0 180 65" fill="none" xmlns="http://www.w3.org/2000/svg">
<path d="M180 21.6939C180 30.5248 175.139 37.2103 167.605 44.4446C164.737 47.2386 161.481 50.0824 157.932 53.1757L157.835 53.2755C155.988 54.9219 153.849 56.7679 151.662 58.7137L150.01 60.2105L149.183 60.9589L147.482 62.5055L145.149 60.4101L144.954 60.2604L143.691 59.1129L143.302 58.7636C141.114 56.8178 138.976 54.9718 137.129 53.3254L137.08 53.2755C133.532 50.1822 130.275 47.2885 127.359 44.5444C121.818 39.206 117.735 34.1669 115.985 28.3794C115.353 26.2839 115.013 24.1386 115.013 21.7937C115.013 19.4487 115.353 17.2036 115.985 15.1081C118.464 6.92587 125.414 1.1384 133.823 1.1384C134.65 1.1384 135.427 1.18829 136.254 1.33797C138.392 1.63732 140.483 2.3857 142.378 3.48332L141.406 5.27943C139.802 4.33148 138.101 3.73278 136.302 3.43343C135.476 3.28375 134.65 3.23386 133.823 3.23386C124.394 3.23386 117.005 11.4161 117.005 21.8436C117.005 29.6766 121.331 35.8632 128.136 42.5487C131.101 45.4924 134.601 48.5358 138.344 51.8286L138.393 51.8785C140.24 53.525 142.378 55.371 144.566 57.3167L145.829 58.4144L146.656 59.1628L146.704 59.2126L147.433 59.8612L147.968 59.3623L149.037 58.3645L150.301 57.2669C152.489 55.3211 154.627 53.4751 156.474 51.8286L156.571 51.7288C160.363 48.436 163.814 45.3926 166.779 42.4988C173.584 35.8133 177.91 29.6267 177.91 21.7937C177.91 11.3662 170.522 3.18397 161.092 3.18397C160.266 3.18397 159.488 3.23386 158.662 3.38354C157.932 3.48332 157.203 3.68289 156.474 3.93235L155.891 1.98656C156.815 1.68721 157.787 1.43775 158.759 1.33797C159.536 1.23818 160.314 1.18829 161.092 1.18829C171.737 1.03861 180 10.119 180 21.6939Z" fill="#1F7168"/>
<path d="M145.678 6.47685L145.533 6.7762C145.046 7.67425 143.929 7.97361 143.054 7.47469L136.929 3.83257C136.686 3.68289 136.54 3.53322 136.394 3.33365C136.006 2.78484 135.908 1.98657 136.297 1.28808L136.346 1.23819L136.492 0.988731C136.978 0.0906754 138.096 -0.208677 138.971 0.290242L145.095 3.93236C145.873 4.43128 146.164 5.57879 145.678 6.47685Z" fill="#4C8D86"/>
<path d="M150.061 60.1607C150.109 60.8093 149.866 61.5077 149.429 62.0566C149.38 62.1064 149.331 62.1563 149.283 62.2062C148.797 62.6553 148.213 62.9047 147.582 62.9047H147.533C146.901 62.9047 146.318 62.7052 145.832 62.2561L145.054 61.5576L142.283 59.0131L128.285 46.2408C127.75 45.7419 127.458 45.0933 127.41 44.4447C127.361 43.7462 127.556 43.0477 128.042 42.4989C128.09 42.449 128.139 42.3991 128.187 42.3492C128.674 41.8503 129.305 41.6008 129.986 41.6008C130.618 41.6008 131.201 41.8004 131.687 42.2494L147.144 56.3689L147.533 56.7181L149.137 58.2149L149.186 58.2648C149.769 58.8136 150.061 59.5121 150.061 60.1607Z" fill="#4C8D86"/>
<path d="M149.274 62.256L166.821 46.2407C167.89 45.2928 167.988 43.5964 167.015 42.4988C166.092 41.4012 164.439 41.3014 163.37 42.2993L145.823 58.3146C144.754 59.2625 144.656 60.9588 145.628 62.0565C146.552 63.1541 148.205 63.2539 149.274 62.256Z" fill="#4C8D86"/>
<path d="M152.109 7.42479L158.233 3.78267C159.108 3.28376 159.4 2.13624 158.914 1.23819L158.768 0.938834C158.282 0.0407792 157.164 -0.258573 156.289 0.240346L150.165 3.88246C149.29 4.38138 148.998 5.52889 149.484 6.42695L149.63 6.7263C150.116 7.62436 151.234 7.92371 152.109 7.42479Z" fill="#4C8D86"/>
<path d="M147.135 65C145.969 65 144.997 64.0022 144.997 62.8048V61.2082C144.997 60.0108 145.969 59.013 147.135 59.013C148.302 59.013 149.274 60.0108 149.274 61.2082V62.8048C149.274 64.0521 148.302 65 147.135 65Z" fill="#4C8D86"/>
<path d="M172.807 21.9932C172.807 30.874 165.176 37.5595 153.656 47.6377C151.809 49.2841 149.719 51.0802 147.58 53.026C147.434 52.9262 147.337 52.7765 147.191 52.6767C145.15 50.8806 143.254 49.1843 141.504 47.6377C129.984 37.5595 122.353 30.874 122.353 21.9932C122.353 14.21 127.505 8.32278 134.408 8.32278C136.789 8.32278 139.025 9.12106 140.97 10.6677C142.962 12.2643 144.275 14.3098 145.053 15.7567L147.24 19.8478L147.629 20.5962L150.205 15.7567C150.983 14.3098 152.295 12.2643 154.288 10.6677C156.232 9.12106 158.419 8.32278 160.85 8.32278C167.606 8.32278 172.807 14.21 172.807 21.9932Z" fill="#1F7168"/>
<path opacity="0.64" d="M147.185 19.8284V52.6451C145.138 50.8469 143.237 49.1486 141.482 47.6002C129.927 37.5104 122.274 30.8172 122.274 21.9262C122.274 14.1341 127.441 8.24011 134.364 8.24011C136.753 8.24011 138.995 9.0393 140.945 10.5877C142.944 12.1861 144.26 14.234 145.04 15.6826L147.185 19.8284Z" fill="#1F7168"/>
<path d="M155.989 28.7886H150.496V23.1508H144.566V28.7886H139.073V34.8754H144.566V40.5132H150.496V34.8754H155.989V28.7886Z" fill="#FEFFFF"/>
<path d="M60.0627 26.2123H57.1169C56.8009 27.585 56.2818 28.727 55.5594 29.6383C54.8484 30.5497 54.0076 31.2476 53.037 31.7321C52.0663 32.2281 51.0054 32.5165 49.8542 32.5972C48.703 32.6895 47.5349 32.5857 46.3499 32.2858V28.2368C46.9706 28.5021 47.6365 28.6809 48.3475 28.7732C49.0586 28.8655 49.7357 28.8424 50.3791 28.704C51.0224 28.5655 51.5923 28.2944 52.0889 27.8907C52.5855 27.4985 52.9354 26.939 53.1385 26.2123C52.6984 26.293 52.2018 26.3276 51.6488 26.3161C51.107 26.3046 50.5483 26.2353 49.9727 26.1084C49.3972 25.97 48.8328 25.7681 48.2798 25.5028C47.7381 25.226 47.2471 24.8568 46.807 24.3954C46.3781 23.934 46.0338 23.3687 45.7743 22.6997C45.5147 22.0306 45.3849 21.2404 45.3849 20.3291V16.7992C45.3849 15.934 45.5429 15.1208 45.8589 14.3594C46.1862 13.5981 46.6264 12.9348 47.1794 12.3695C47.7437 11.7927 48.3983 11.3429 49.1432 11.0199C49.8994 10.6853 50.7007 10.5181 51.5472 10.5181C52.3937 10.5181 53.1893 10.6853 53.9342 11.0199C54.6791 11.3429 55.3281 11.7927 55.8811 12.3695C56.4454 12.9348 56.8912 13.5981 57.2185 14.3594C57.5458 15.1208 57.7095 15.934 57.7095 16.7992C57.7095 17.7797 57.7095 18.5757 57.7095 19.1871C57.7095 19.7985 57.7038 20.2945 57.6925 20.6752C57.6925 21.0558 57.6869 21.3558 57.6756 21.5749C57.6756 21.7826 57.67 21.9787 57.6587 22.1633H60.0627V26.2123ZM49.3633 16.8857V19.8792C49.3633 20.2484 49.4254 20.5771 49.5495 20.8655C49.6737 21.1424 49.8373 21.3788 50.0405 21.5749C50.2436 21.7711 50.475 21.9268 50.7346 22.0421C50.9942 22.146 51.265 22.2036 51.5472 22.2152H53.748V16.8857C53.748 16.4704 53.6859 16.1128 53.5618 15.8129C53.4376 15.513 53.2683 15.265 53.0539 15.0689C52.8507 14.8728 52.6137 14.7343 52.3429 14.6536C52.0833 14.5613 51.8181 14.5209 51.5472 14.5325C51.265 14.544 50.9942 14.6074 50.7346 14.7228C50.475 14.8266 50.2436 14.9823 50.0405 15.19C49.8373 15.3861 49.6737 15.6283 49.5495 15.9167C49.4254 16.1936 49.3633 16.5166 49.3633 16.8857Z" fill="#1F7168"/>
<path d="M66.225 19.8792C66.225 20.2484 66.287 20.5771 66.4112 20.8655C66.5353 21.1424 66.699 21.3788 66.9021 21.5749C67.1053 21.7595 67.3366 21.9037 67.5962 22.0075C67.8671 22.1114 68.138 22.1633 68.4088 22.1633V26.2123C67.5962 26.2123 66.8344 26.0681 66.1234 25.7797C65.4123 25.4798 64.7803 25.0702 64.2273 24.5511C63.6743 25.0702 63.0422 25.4798 62.3312 25.7797C61.6202 26.0681 60.8583 26.2123 60.0457 26.2123V22.1633C60.3166 22.1633 60.5818 22.1114 60.8414 22.0075C61.1123 21.9037 61.3493 21.7595 61.5524 21.5749C61.7669 21.3788 61.9362 21.1424 62.0603 20.8655C62.1958 20.5771 62.2635 20.2484 62.2635 19.8792V13.2693H66.225V19.8792ZM61.8233 5.22321L64.1934 7.64569L66.5635 5.22321L69.4077 8.11288L66.5635 11.0199L64.1934 8.61468L61.8233 11.0199L58.9792 8.11288L61.8233 5.22321Z" fill="#1F7168"/>
<path d="M74.5542 19.8792C74.5542 20.2484 74.6163 20.5771 74.7404 20.8655C74.8646 21.1424 75.0282 21.3788 75.2314 21.5749C75.4345 21.7595 75.6659 21.9037 75.9255 22.0075C76.1964 22.1114 76.4672 22.1633 76.7381 22.1633V26.2123C75.9255 26.2123 75.1637 26.0681 74.4526 25.7797C73.7416 25.4798 73.1096 25.0702 72.5565 24.5511C72.0035 25.0702 71.3715 25.4798 70.6604 25.7797C69.9494 26.0681 69.1876 26.2123 68.375 26.2123V22.1633C68.6459 22.1633 68.9111 22.1114 69.1707 22.0075C69.4415 21.9037 69.6785 21.7595 69.8817 21.5749C70.0961 21.3788 70.2654 21.1424 70.3896 20.8655C70.525 20.5771 70.5927 20.2484 70.5927 19.8792V13.2693H74.5542V19.8792ZM70.1356 28.3752L72.5058 30.7977L74.8759 28.3752L77.72 31.2649L74.8759 34.1718L72.5058 31.7667L70.1356 34.1718L67.2915 31.2649L70.1356 28.3752Z" fill="#1F7168"/>
<path d="M82.8835 13.2693V19.9311C82.8835 20.7963 82.7198 21.6153 82.3925 22.3882C82.0652 23.1496 81.6194 23.8129 81.0551 24.3781C80.5021 24.9433 79.8475 25.3932 79.0913 25.7278C78.3464 26.0508 77.5507 26.2123 76.7042 26.2123V22.1633C76.9751 22.1633 77.2403 22.1114 77.4999 22.0075C77.7708 21.9037 78.0078 21.7595 78.211 21.5749C78.4254 21.3788 78.5947 21.1424 78.7188 20.8655C78.8543 20.5771 78.922 20.2484 78.922 19.8792V13.2693H82.8835ZM79.9208 28.4444L82.7819 31.3514L79.9208 34.2411L77.0936 31.3514L79.9208 28.4444Z" fill="#1F7168"/>
<path d="M99.8128 26.2123H96.8671C96.5511 27.585 96.0319 28.727 95.3096 29.6383C94.5986 30.5497 93.7578 31.2476 92.7872 31.7321C91.8165 32.2281 90.7556 32.5165 89.6044 32.5972C88.4532 32.6895 87.2851 32.5857 86.1 32.2858V28.2368C86.7208 28.5021 87.3867 28.6809 88.0977 28.7732C88.8087 28.8655 89.4859 28.8424 90.1292 28.704C90.7726 28.5655 91.3425 28.2944 91.8391 27.8907C92.3357 27.4985 92.6856 26.939 92.8887 26.2123C92.4486 26.293 91.952 26.3276 91.3989 26.3161C90.8572 26.3046 90.2985 26.2353 89.7229 26.1084C89.1473 25.97 88.583 25.7681 88.03 25.5028C87.4883 25.226 86.9973 24.8568 86.5571 24.3954C86.1283 23.934 85.784 23.3687 85.5244 22.6997C85.2649 22.0306 85.1351 21.2404 85.1351 20.3291V16.7992C85.1351 15.934 85.2931 15.1208 85.6091 14.3594C85.9364 13.5981 86.3766 12.9348 86.9296 12.3695C87.4939 11.7927 88.1485 11.3429 88.8934 11.0199C89.6496 10.6853 90.4509 10.5181 91.2974 10.5181C92.1438 10.5181 92.9395 10.6853 93.6844 11.0199C94.4293 11.3429 95.0783 11.7927 95.6313 12.3695C96.1956 12.9348 96.6414 13.5981 96.9687 14.3594C97.296 15.1208 97.4597 15.934 97.4597 16.7992C97.4597 17.7797 97.4597 18.5757 97.4597 19.1871C97.4597 19.7985 97.454 20.2945 97.4427 20.6752C97.4427 21.0558 97.4371 21.3558 97.4258 21.5749C97.4258 21.7826 97.4202 21.9787 97.4089 22.1633H99.8128V26.2123ZM89.1135 16.8857V19.8792C89.1135 20.2484 89.1755 20.5771 89.2997 20.8655C89.4238 21.1424 89.5875 21.3788 89.7906 21.5749C89.9938 21.7711 90.2252 21.9268 90.4848 22.0421C90.7443 22.146 91.0152 22.2036 91.2974 22.2152H93.4982V16.8857C93.4982 16.4704 93.4361 16.1128 93.312 15.8129C93.1878 15.513 93.0185 15.265 92.8041 15.0689C92.6009 14.8728 92.3639 14.7343 92.093 14.6536C91.8335 14.5613 91.5682 14.5209 91.2974 14.5325C91.0152 14.544 90.7443 14.6074 90.4848 14.7228C90.2252 14.8266 89.9938 14.9823 89.7906 15.19C89.5875 15.3861 89.4238 15.6283 89.2997 15.9167C89.1755 16.1936 89.1135 16.5166 89.1135 16.8857Z" fill="#1F7168"/>
<path d="M105.975 13.2693V19.9311C105.975 20.7963 105.811 21.6153 105.484 22.3882C105.157 23.1496 104.711 23.8129 104.147 24.3781C103.594 24.9433 102.939 25.3932 102.183 25.7278C101.438 26.0508 100.642 26.2123 99.7959 26.2123V22.1633C100.067 22.1633 100.332 22.1114 100.592 22.0075C100.862 21.9037 101.099 21.7595 101.303 21.5749C101.517 21.3788 101.686 21.1424 101.811 20.8655C101.946 20.5771 102.014 20.2484 102.014 19.8792V13.2693H105.975ZM104.045 5.32703L106.889 8.234L104.045 11.1237L101.218 8.234L104.045 5.32703Z" fill="#1F7168"/>
<path d="M4.37494 55.2499C4.3672 55.1339 4.36333 54.9559 4.36333 54.716C4.36333 54.391 4.3672 54.1473 4.37494 53.9848C5.34199 53.9848 6.11563 53.9112 6.69586 53.7642C7.28383 53.6095 7.74414 53.3734 8.07681 53.0562C8.40947 52.7312 8.66864 52.294 8.85432 51.7446L9.8291 51.8606C9.68985 52.2862 9.62022 52.6461 9.62022 52.9401C9.62022 53.5514 9.92968 53.8571 10.5486 53.8571L10.6182 54.4955L10.5486 55.1339C10.038 55.1339 9.61248 54.9714 9.27208 54.6464C8.93942 54.3214 8.77695 53.8958 8.78469 53.3696L9.01678 53.3928C8.57581 54.0583 7.97624 54.5342 7.21807 54.8205C6.46764 55.1068 5.51993 55.2499 4.37494 55.2499ZM1.34613 51.1526C1.12952 51.7639 1.02121 52.2398 1.02121 52.5803C1.02121 52.6654 1.02507 52.7312 1.03281 52.7776C1.0947 53.1568 1.41189 53.4547 1.98439 53.6714C2.56462 53.8803 3.38855 53.9848 4.45617 53.9848C4.47164 54.2943 4.47938 54.5264 4.47938 54.6812C4.47938 54.8127 4.47164 55.0023 4.45617 55.2499C3.09456 55.2577 2.03081 55.0681 1.2649 54.6812C0.498998 54.2865 0.0812322 53.7178 0.0116046 52.9749C0.0038682 52.913 0 52.824 0 52.708C0 52.3907 0.0425502 52.0541 0.127651 51.6981C0.212751 51.3345 0.317193 51.0056 0.440975 50.7115L1.34613 51.1526ZM3.13324 50.5374C3.50459 50.166 3.69027 49.9803 3.69027 49.9803L4.5374 50.816C4.25889 51.1023 3.97651 51.3848 3.69027 51.6633L2.85473 50.816L3.13324 50.5374ZM5.17566 50.5374C5.547 50.166 5.73268 49.9803 5.73268 49.9803L6.57981 50.816C6.3013 51.1023 6.01892 51.3848 5.73268 51.6633L4.89715 50.816L5.17566 50.5374Z" fill="#515151"/>
<path d="M10.4251 53.8571H11.0285C11.632 53.8571 12.0652 53.7836 12.3283 53.6365C12.5913 53.4895 12.7228 53.2612 12.7228 52.9517C12.7228 52.7428 12.6416 52.3868 12.4791 51.8839C12.3244 51.3731 12.2006 51.0211 12.1078 50.8276L13.071 50.3053C13.218 50.6071 13.3688 51.0288 13.5235 51.5705C13.6783 52.1044 13.7556 52.5648 13.7556 52.9517C13.7556 53.6714 13.5197 54.2169 13.0478 54.5883C12.5836 54.952 11.9105 55.1339 11.0285 55.1339H10.4251V53.8571ZM10.3903 57.0606C10.692 56.7434 10.9937 56.4416 11.2955 56.1553C11.5972 56.4416 11.8989 56.7434 12.2006 57.0606L11.2955 57.966L10.3903 57.0606Z" fill="#515151"/>
<path d="M14.5486 57.3624C15.8174 57.0916 16.7497 56.7318 17.3454 56.283C17.9411 55.8419 18.2389 55.2848 18.2389 54.6115C18.2389 54.1705 18.1809 53.7294 18.0648 53.2883C17.9488 52.8473 17.7786 52.4797 17.5542 52.1856C17.3376 51.8839 17.0823 51.7175 16.7883 51.6865C16.6181 51.6633 16.4518 51.7214 16.2893 51.8606C16.1346 51.9922 16.007 52.1663 15.9064 52.383C15.8135 52.5996 15.7671 52.8086 15.7671 53.0098C15.7671 53.1723 15.7981 53.2999 15.86 53.3928C15.9837 53.5785 16.2661 53.7023 16.7071 53.7642C17.1558 53.8261 17.736 53.8571 18.4478 53.8571H19.585L19.6547 54.4955L19.585 55.1339L18.1577 55.1455C17.3144 55.1455 16.6297 55.0797 16.1037 54.9481C15.5853 54.8089 15.2217 54.5264 15.0128 54.1008C14.8813 53.8223 14.8156 53.5166 14.8156 53.1839C14.8156 52.766 14.9045 52.3481 15.0825 51.9303C15.2681 51.5124 15.5118 51.1681 15.8135 50.8973C16.123 50.6264 16.4557 50.491 16.8115 50.491C17.268 50.491 17.6742 50.6922 18.03 51.0946C18.3936 51.4892 18.6721 51.9999 18.8656 52.6267C19.0667 53.2458 19.1673 53.8687 19.1673 54.4955C19.1673 55.5014 18.7921 56.3526 18.0416 57.049C17.2989 57.7455 16.2623 58.2252 14.9316 58.4883L14.5486 57.3624Z" fill="#515151"/>
<path d="M19.4345 53.8571H20.038C20.6414 53.8571 21.0747 53.7836 21.3377 53.6365C21.6007 53.4895 21.7323 53.2612 21.7323 52.9517C21.7323 52.7428 21.651 52.3868 21.4886 51.8839C21.3338 51.3731 21.2101 51.0211 21.1172 50.8276L22.0804 50.3053C22.2274 50.6071 22.3783 51.0288 22.533 51.5705C22.6877 52.1044 22.7651 52.5648 22.7651 52.9517C22.7651 53.6714 22.5291 54.2169 22.0572 54.5883C21.593 54.952 20.9199 55.1339 20.038 55.1339H19.4345V53.8571ZM20.3281 48.7615C20.6298 48.4443 20.9315 48.1425 21.2333 47.8562C21.535 48.1425 21.8367 48.4443 22.1384 48.7615L21.2333 49.6669L20.3281 48.7615Z" fill="#515151"/>
<path d="M27.1732 57.3624C28.442 57.0916 29.3742 56.7318 29.9699 56.283C30.5656 55.8419 30.8635 55.2848 30.8635 54.6115C30.8557 54.1705 30.7938 53.7294 30.6778 53.2883C30.5617 52.8473 30.3915 52.4797 30.1672 52.1856C29.9506 51.8839 29.6991 51.7175 29.4129 51.6865C29.2427 51.6633 29.0763 51.7214 28.9139 51.8606C28.7592 51.9922 28.6315 52.1663 28.5309 52.383C28.4381 52.5996 28.3917 52.8086 28.3917 53.0098C28.3917 53.1723 28.4226 53.2999 28.4845 53.3928C28.6083 53.5708 28.821 53.7062 29.1228 53.799C29.4322 53.8842 29.7804 53.9267 30.1672 53.9267C30.4844 53.9267 30.8054 53.8958 31.1304 53.8339V55.0294C30.7822 55.1223 30.3954 55.1687 29.9699 55.1687C29.4438 55.1687 28.968 55.0836 28.5425 54.9133C28.117 54.7354 27.8153 54.4645 27.6374 54.1008C27.5059 53.8223 27.4401 53.5166 27.4401 53.1839C27.4401 52.766 27.5291 52.3481 27.707 51.9303C27.8927 51.5124 28.1364 51.1681 28.4381 50.8973C28.7475 50.6264 29.0802 50.491 29.4361 50.491C29.8925 50.491 30.2987 50.6922 30.6546 51.0946C31.0182 51.4892 31.2967 51.9999 31.4901 52.6267C31.6913 53.2458 31.7918 53.8687 31.7918 54.4955C31.7918 55.5014 31.4166 56.3526 30.6662 57.049C29.9235 57.7455 28.8868 58.2252 27.5561 58.4883L27.1732 57.3624Z" fill="#515151"/>
<path d="M31.9131 57.3973C32.416 57.2115 32.8686 56.9794 33.2709 56.7008C33.6809 56.4223 34.002 56.1321 34.2341 55.8303C34.4739 55.5362 34.5938 55.2615 34.5938 55.0062C34.5938 54.6812 34.3888 53.7217 33.9787 52.1276L35 51.733C35.1779 52.2824 35.321 52.8627 35.4293 53.474C35.5454 54.0776 35.6034 54.5883 35.6034 55.0062C35.6034 55.7181 35.3055 56.3874 34.7098 57.0142C34.1219 57.6487 33.356 58.1401 32.4121 58.4883L31.9131 57.3973Z" fill="#515151"/>
<path d="M36.0722 57.3973C36.5751 57.2115 37.0276 56.9794 37.4299 56.7008C37.84 56.4223 38.161 56.1321 38.3931 55.8303C38.633 55.5362 38.7529 55.2615 38.7529 55.0062C38.7529 54.6812 38.5479 53.7217 38.1378 52.1276L39.159 51.733C39.337 52.2824 39.4801 52.8627 39.5884 53.474C39.7044 54.0776 39.7625 54.5883 39.7625 55.0062C39.7625 55.7181 39.4646 56.3874 38.8689 57.0142C38.2809 57.6487 37.515 58.1401 36.5712 58.4883L36.0722 57.3973ZM37.546 49.7017C37.8477 49.3845 38.1494 49.0827 38.4511 48.7964C38.7529 49.0827 39.0546 49.3845 39.3563 49.7017L38.4511 50.6071L37.546 49.7017Z" fill="#515151"/>
<path d="M40.1633 57.3973C40.6661 57.2115 41.1187 56.9794 41.521 56.7008C41.931 56.4223 42.2521 56.1321 42.4842 55.8303C42.724 55.5362 42.8439 55.2615 42.8439 55.0062C42.8439 54.6812 42.6389 53.7217 42.2289 52.1276L43.2501 51.733C43.428 52.2824 43.5712 52.8627 43.6795 53.474C43.7955 54.0776 43.8535 54.5883 43.8535 55.0062C43.8535 55.7181 43.5557 56.3874 42.96 57.0142C42.372 57.6487 41.6061 58.1401 40.6623 58.4883L40.1633 57.3973Z" fill="#515151"/>
<path d="M55.2379 52.6035C55.3848 53.0755 55.5318 53.4044 55.6788 53.5901C55.8336 53.7681 56.0618 53.8571 56.3635 53.8571H56.4331L56.5028 54.4955L56.4331 55.1339H56.3635C56.0695 55.1339 55.8142 55.0371 55.5976 54.8437C55.381 54.6502 55.1992 54.4104 55.0522 54.124C54.9052 53.83 54.7466 53.4586 54.5764 53.0098L55.2379 52.6035ZM50.0622 52.7196C49.629 53.6172 49.4123 54.3987 49.4123 55.0642C49.4123 55.7684 49.6251 56.3023 50.0506 56.666C50.4761 57.0297 51.0834 57.2115 51.8725 57.2115C52.4682 57.2115 52.975 57.1032 53.3927 56.8865C53.8105 56.6776 54.1199 56.4029 54.3211 56.0624C54.53 55.7297 54.6344 55.3776 54.6344 55.0062C54.6344 54.6734 54.5648 54.2362 54.4255 53.6946C54.2863 53.1529 54.1315 52.6345 53.9613 52.1392L54.9477 51.6633C55.1798 52.3365 55.35 52.944 55.4583 53.4856C55.5744 54.0273 55.6324 54.5342 55.6324 55.0062C55.6324 55.602 55.4815 56.1669 55.1798 56.7008C54.8781 57.2348 54.441 57.6642 53.8685 57.9892C53.3037 58.322 52.6384 58.4883 51.8725 58.4883C51.1453 58.4883 50.5186 58.3413 49.9926 58.0473C49.4665 57.7609 49.0642 57.3702 48.7857 56.8749C48.5149 56.3797 48.3795 55.8226 48.3795 55.2035C48.3795 54.7392 48.4569 54.244 48.6116 53.7178C48.7663 53.1916 48.9482 52.7196 49.157 52.3017L50.0622 52.7196ZM51.211 51.791C51.5128 51.4737 51.8145 51.172 52.1162 50.8856C52.4179 51.172 52.7197 51.4737 53.0214 51.791L52.1162 52.6964L51.211 51.791Z" fill="#515151"/>
<path d="M56.6126 53.8571H57.1C57.9123 53.8571 58.4848 53.7836 58.8175 53.6365C59.1502 53.4818 59.3165 53.2419 59.3165 52.9169C59.3088 52.7002 59.2275 52.3481 59.0728 51.8606C58.9181 51.3731 58.7904 51.0288 58.6899 50.8276L59.653 50.3053C59.8078 50.6148 59.9586 51.0288 60.1056 51.5473C60.2603 52.0657 60.3377 52.5184 60.3377 52.9053C60.3377 53.6404 60.0824 54.1976 59.5718 54.5767C59.0612 54.9481 58.2953 55.1339 57.2741 55.1339H56.6126V53.8571ZM57.2509 56.1901L58.098 57.0258C57.8195 57.3121 57.5371 57.5946 57.2509 57.8731L56.4154 57.0258L57.2509 56.1901ZM59.3049 56.1901L60.152 57.0258C59.8735 57.3121 59.5912 57.5946 59.3049 57.8731L58.4694 57.0258L59.3049 56.1901ZM56.3457 55.1339L56.2761 54.4955L56.3457 53.8571H56.7287V55.1339H56.3457Z" fill="#515151"/>
<path d="M68.0407 55.1339C67.3445 55.1339 66.8338 54.8785 66.5089 54.3678C66.1917 53.8571 66.0254 53.1645 66.0099 52.2901C66.0022 51.9729 66.0525 51.7175 66.1608 51.524C66.2691 51.3306 66.389 51.2339 66.5205 51.2339C66.5979 51.2339 66.6598 51.2726 66.7062 51.3499C66.7604 51.4273 66.7874 51.5395 66.7874 51.6865C66.7874 52.205 66.8222 52.619 66.8919 52.9285C66.9692 53.238 67.0969 53.4702 67.2748 53.6249C67.4605 53.7797 67.7235 53.8571 68.0639 53.8571H68.18V55.1339H68.0407ZM66.4393 46.8812C66.5553 47.7865 66.6443 48.5874 66.7062 49.2839C66.7681 49.9726 66.799 50.6612 66.799 51.3499L66.7874 51.9187C66.7565 53.0407 66.2923 53.8919 65.3949 54.4723C64.5052 55.0526 63.3718 55.3892 61.9947 55.4821L61.6814 54.2633C62.8883 54.1473 63.8592 53.9112 64.5942 53.5553C65.3291 53.1993 65.6966 52.6538 65.6966 51.9187C65.6966 51.1449 65.6656 50.4059 65.6038 49.7017C65.5496 48.9898 65.4606 48.1309 65.3369 47.1249L66.4393 46.8812ZM62.3081 47.891C62.7877 48.897 63.1552 49.8565 63.4105 50.7696C63.6735 51.6827 63.805 52.4681 63.805 53.1258C63.805 53.4663 63.7702 53.7642 63.7006 54.0196L62.6794 54.2517C62.7645 54.0505 62.807 53.7874 62.807 53.4624C62.807 52.8743 62.6755 52.147 62.4125 51.2803C62.1495 50.4136 61.8052 49.4967 61.3797 48.5294L62.3081 47.891Z" fill="#515151"/>
<path d="M68.0628 53.8571H68.6663C69.2697 53.8571 69.703 53.7836 69.966 53.6365C70.229 53.4895 70.3606 53.2612 70.3606 52.9517C70.3606 52.7428 70.2793 52.3868 70.1169 51.8839C69.9621 51.3731 69.8384 51.0211 69.7455 50.8276L70.7087 50.3053C70.8557 50.6071 71.0066 51.0288 71.1613 51.5705C71.316 52.1044 71.3934 52.5648 71.3934 52.9517C71.3934 53.6714 71.1574 54.2169 70.6855 54.5883C70.2213 54.952 69.5482 55.1339 68.6663 55.1339H68.0628V53.8571ZM68.9564 48.7615C69.2581 48.4443 69.5598 48.1425 69.8616 47.8562C70.1633 48.1425 70.465 48.4443 70.7667 48.7615L69.8616 49.6669L68.9564 48.7615Z" fill="#515151"/>
<path d="M73.1954 55.0642C73.2418 54.6773 73.265 54.0002 73.265 53.033C73.265 52.1121 73.2418 51.1681 73.1954 50.2008C73.1567 49.2258 73.1064 48.5449 73.0445 48.158L74.1353 47.9258C74.1895 48.3205 74.2398 49.013 74.2862 50.0035C74.3403 50.9862 74.3674 51.9419 74.3674 52.8705C74.3674 53.8842 74.3365 54.658 74.2746 55.1919L73.1954 55.0642ZM71.6635 47.2294C71.8105 46.8889 71.9885 46.6297 72.1973 46.4517C72.4062 46.2737 72.6383 46.1848 72.8936 46.1848C73.1103 46.1848 73.3501 46.2505 73.6131 46.3821C73.706 46.4208 73.8027 46.4595 73.9032 46.4981C74.0115 46.5291 74.1121 46.5446 74.2049 46.5446C74.3519 46.5446 74.4951 46.502 74.6343 46.4169C74.7813 46.3318 74.9012 46.2196 74.9941 46.0803L75.4234 46.4517C75.2687 46.6916 75.083 46.8773 74.8664 47.0089C74.6498 47.1404 74.4293 47.2062 74.2049 47.2062C74.0734 47.2062 73.9535 47.1907 73.8452 47.1598C73.7446 47.1288 73.6209 47.0785 73.4739 47.0089C73.3501 46.9547 73.2456 46.916 73.1605 46.8928C73.0754 46.8618 72.9865 46.8464 72.8936 46.8464C72.7389 46.8464 72.5958 46.9044 72.4643 47.0205C72.3327 47.1288 72.2244 47.2874 72.1393 47.4964L71.6635 47.2294Z" fill="#515151"/>
<path d="M79.4644 53.9731C79.4799 53.6017 79.6036 53.2999 79.8357 53.0678C80.0756 52.8279 80.3618 52.708 80.6945 52.708C80.826 52.708 80.942 52.7234 81.0426 52.7544C81.3443 52.1199 81.677 51.6053 82.0406 51.2106C82.4042 50.816 82.791 50.6071 83.2011 50.5839C83.6111 50.5606 83.967 50.669 84.2687 50.9089C84.5781 51.1487 84.8141 51.466 84.9766 51.8606C85.1468 52.2553 85.2319 52.6693 85.2319 53.1026C85.2319 53.5282 85.1506 53.919 84.9882 54.2749C84.8257 54.6231 84.582 54.8862 84.2571 55.0642C84.1023 55.1493 83.9283 55.1919 83.7349 55.1919C83.4409 55.1919 83.0695 55.1029 82.6208 54.9249C82.1721 54.7392 81.5842 54.4413 80.8569 54.0312C80.826 54.008 80.7873 53.9964 80.7409 53.9964C80.6248 53.9964 80.563 54.066 80.5552 54.2053V54.5535C80.5552 55.0874 80.5745 55.6562 80.6132 56.2598C80.6519 56.8633 80.7099 57.6178 80.7873 58.5231C80.8105 58.7243 80.8221 58.8791 80.8221 58.9874C80.8298 59.1035 80.8376 59.1848 80.8453 59.2312L79.7545 59.4401L79.7081 58.9526C79.6307 58.0627 79.5688 57.2812 79.5224 56.608C79.476 55.9348 79.4528 55.2848 79.4528 54.658C79.4528 54.3407 79.4566 54.1124 79.4644 53.9731ZM81.9246 53.2187C82.7601 53.7449 83.3597 54.008 83.7233 54.008C83.8161 54.008 83.8819 53.9925 83.9206 53.9615C84.0443 53.8996 84.1333 53.799 84.1875 53.6598C84.2493 53.5127 84.2803 53.3425 84.2803 53.149C84.2803 52.7931 84.1875 52.472 84.0018 52.1856C83.8238 51.8916 83.5879 51.7446 83.2939 51.7446C82.8993 51.7446 82.4429 52.2359 81.9246 53.2187Z" fill="#515151"/>
<path d="M89.2241 55.1339C88.729 55.1339 88.3383 54.9598 88.0521 54.6115C87.7736 54.2556 87.5376 53.7526 87.3442 53.1026L88.1217 52.6267C88.23 53.0833 88.3654 53.4044 88.5278 53.5901C88.6981 53.7681 88.9301 53.8571 89.2241 53.8571H89.3054L89.375 54.4955L89.3054 55.1339H89.2241ZM84.7912 57.3973C85.294 57.2115 85.7466 56.9794 86.1489 56.7008C86.5589 56.4223 86.88 56.1321 87.1121 55.8303C87.3519 55.5362 87.4718 55.2615 87.4718 55.0062C87.4718 54.6812 87.2668 53.7217 86.8568 52.1276L87.878 51.733C88.0559 52.2824 88.1991 52.8627 88.3074 53.474C88.4234 54.0776 88.4814 54.5883 88.4814 55.0062C88.4814 55.7181 88.1836 56.3874 87.5879 57.0142C86.9999 57.6487 86.234 58.1401 85.2902 58.4883L84.7912 57.3973Z" fill="#515151"/>
<path d="M89.152 53.8571H89.4306C90.2738 53.8571 90.943 53.8068 91.4382 53.7062C91.941 53.6056 92.3124 53.4624 92.5522 53.2767C92.792 53.0833 92.9622 52.8395 93.0628 52.5455C93.0783 52.3365 93.0473 52.1315 92.97 51.9303C92.9003 51.7291 92.7882 51.5627 92.6334 51.4312C92.4787 51.2996 92.3008 51.2339 92.0996 51.2339C91.8366 51.2339 91.6045 51.3499 91.4033 51.5821C91.2022 51.8065 91.0823 52.0773 91.0436 52.3946C91.0359 52.6499 91.1364 52.8898 91.3453 53.1142C91.5542 53.3386 91.8598 53.5205 92.2621 53.6598C92.6721 53.7913 93.1556 53.8571 93.7127 53.8571H94.8383L94.9079 54.4955L94.8383 55.1339H94.142C93.3607 55.1339 92.6566 55.0178 92.03 54.7856C91.4111 54.5535 90.9237 54.2401 90.5678 53.8455C90.2197 53.4508 90.0456 53.0175 90.0456 52.5455C90.0456 52.4836 90.0533 52.3907 90.0688 52.2669C90.1307 51.849 90.2622 51.466 90.4634 51.1178C90.6723 50.7618 90.9237 50.4833 91.2177 50.2821C91.5194 50.0731 91.8327 49.9687 92.1576 49.9687C92.5213 49.9687 92.8462 50.0848 93.1324 50.3169C93.4264 50.549 93.6546 50.847 93.8171 51.2106C93.9796 51.5743 94.0608 51.9458 94.0608 52.3249C94.0608 52.3946 94.0531 52.499 94.0376 52.6383C93.9215 53.4895 93.4806 54.1202 92.7147 54.5303C91.9565 54.9327 90.8618 55.1339 89.4306 55.1339H89.152V53.8571ZM91.3105 48.4017C91.6122 48.0845 91.9139 47.7827 92.2157 47.4964C92.5174 47.7827 92.8191 48.0845 93.1208 48.4017L92.2157 49.3071L91.3105 48.4017Z" fill="#515151"/>
<path d="M94.6945 53.8571H94.7874C95.3908 53.8571 95.8588 53.83 96.1915 53.7758C96.5242 53.7217 96.764 53.6443 96.911 53.5437C97.0657 53.4354 97.1702 53.2845 97.2243 53.091C97.2553 52.9904 97.2707 52.8473 97.2707 52.6615C97.2707 52.4526 97.2514 52.2166 97.2127 51.9535C97.174 51.6827 97.1508 51.5163 97.1431 51.4544L98.1063 51.2571C98.2146 51.7755 98.2687 52.4023 98.2687 53.1374C98.3074 53.3618 98.408 53.5398 98.5705 53.6714C98.7407 53.7952 98.9689 53.8571 99.2551 53.8571H99.3364L99.406 54.4955L99.3364 55.1339H99.2551C98.8761 55.1339 98.5395 55.0255 98.2455 54.8089C97.9593 54.5922 97.7465 54.3136 97.6073 53.9731L97.8626 54.0196C97.6924 54.4297 97.3791 54.7199 96.9226 54.8901C96.4662 55.0526 95.7544 55.1339 94.7874 55.1339H94.6945V53.8571ZM95.2167 49.2142C95.5881 48.8428 95.7738 48.6571 95.7738 48.6571L96.6209 49.4928C96.3424 49.7791 96.06 50.0615 95.7738 50.3401L94.9382 49.4928L95.2167 49.2142ZM97.2591 49.2142C97.6305 48.8428 97.8162 48.6571 97.8162 48.6571L98.6633 49.4928C98.3848 49.7791 98.1024 50.0615 97.8162 50.3401L96.9806 49.4928L97.2591 49.2142Z" fill="#515151"/>
<path d="M102.79 53.8571L102.86 54.4955L102.79 55.1339H102.663C102.315 55.1339 101.99 55.0294 101.688 54.8205C101.394 54.6038 101.158 54.3098 100.98 53.9383C100.802 53.5669 100.713 53.1529 100.713 52.6964C100.721 52.5106 100.69 51.6517 100.62 50.1196C100.551 48.5874 100.493 47.5892 100.446 47.1249L101.549 46.8928C101.595 47.3571 101.638 48.2702 101.676 49.6321C101.723 50.9862 101.75 51.7523 101.758 51.9303L101.781 52.708C101.827 53.474 102.121 53.8571 102.663 53.8571H102.79ZM99.2162 53.8571H99.518C99.9512 53.8571 100.261 53.7681 100.446 53.5901C100.632 53.4044 100.721 53.1065 100.713 52.6964L101.526 52.7892C101.526 53.4934 101.351 54.0621 101.003 54.4955C100.663 54.9211 100.172 55.1339 99.5296 55.1339H99.2162V53.8571Z" fill="#515151"/>
<path d="M102.673 53.8571H103.16C103.972 53.8571 104.545 53.7836 104.878 53.6365C105.21 53.4818 105.377 53.2419 105.377 52.9169C105.369 52.7002 105.288 52.3481 105.133 51.8606C104.978 51.3731 104.85 51.0288 104.75 50.8276L105.713 50.3053C105.868 50.6148 106.019 51.0288 106.166 51.5473C106.32 52.0657 106.398 52.5184 106.398 52.9053C106.398 53.6404 106.142 54.1976 105.632 54.5767C105.121 54.9481 104.355 55.1339 103.334 55.1339H102.673V53.8571ZM104.123 56.7473C104.123 56.7473 104.309 56.5615 104.68 56.1901L104.959 55.9115L105.794 56.7473L105.516 57.0258C105.144 57.3973 104.959 57.583 104.959 57.583C104.688 57.2967 104.41 57.0181 104.123 56.7473ZM101.965 56.7473C101.965 56.7473 102.15 56.5615 102.522 56.1901L102.8 55.9115L103.636 56.7473L103.357 57.0258C102.986 57.3973 102.8 57.583 102.8 57.583C102.53 57.2967 102.251 57.0181 101.965 56.7473ZM103.88 57.2928L104.123 57.5365C104.456 57.8693 104.622 58.0356 104.622 58.0356L103.88 58.7785L103.148 58.0356L103.88 57.2928Z" fill="#515151"/>
</svg>
