<svg width="112" height="178" viewBox="0 0 112 178" fill="none" xmlns="http://www.w3.org/2000/svg">
<path d="M111.923 37.3801C111.923 52.5964 103.552 64.1161 90.5763 76.5814C85.6373 81.3956 80.0286 86.2957 73.9176 91.6257L73.7502 91.7977C70.5691 94.6346 66.8858 97.8154 63.1188 101.168L60.2726 103.747L58.8495 105.037L55.9196 107.702L51.9014 104.091L51.5665 103.833L49.39 101.856L48.7203 101.254C44.9533 97.9014 41.27 94.7206 38.0889 91.8836L38.0052 91.7977C31.8942 86.4677 26.2856 81.4815 21.2628 76.7533C11.7197 67.5548 4.68787 58.872 1.67424 48.8998C0.585983 45.2891 0 41.5925 0 37.552C0 33.5116 0.585983 29.643 1.67424 26.0324C5.94354 11.9337 17.9144 1.96143 32.3965 1.96143C33.8196 1.96143 35.159 2.04739 36.5821 2.3053C40.2654 2.8211 43.8651 4.11062 47.1298 6.00191L45.4556 9.09674C42.6931 7.46336 39.7632 6.43175 36.6658 5.91594C35.2427 5.65804 33.8196 5.57207 32.3965 5.57207C16.1564 5.57207 3.43222 19.6708 3.43222 37.638C3.43222 51.1349 10.8825 61.7949 22.6022 73.3146C27.7086 78.3867 33.7359 83.6307 40.1817 89.3046L40.2654 89.3906C43.4465 92.2275 47.1298 95.4083 50.8969 98.761L53.0734 100.652L54.4965 101.942L54.5802 102.028L55.8358 103.145L56.7567 102.286L58.5983 100.566L60.7749 98.6751C64.5419 95.3223 68.2252 92.1415 71.4063 89.3046L71.5737 89.1327C78.1032 83.4588 84.0467 78.2148 89.1532 73.2286C100.873 61.709 108.323 51.049 108.323 37.552C108.323 19.5848 95.599 5.4861 79.3589 5.4861C77.9358 5.4861 76.5964 5.57207 75.1733 5.82998C73.9176 6.00191 72.662 6.34578 71.4063 6.77562L70.4017 3.42288C71.9922 2.90707 73.6665 2.47723 75.3407 2.3053C76.6801 2.13336 78.0195 2.0474 79.3589 2.0474C97.6918 1.78949 111.923 17.4356 111.923 37.3801Z" fill="#1F7168"/>
<path d="M52.8133 11.1601L52.5622 11.6759C51.7251 13.2233 49.7997 13.7391 48.2929 12.8794L37.7452 6.60378C37.3266 6.34587 37.0755 6.08797 36.8243 5.7441C36.1546 4.79846 35.9872 3.42297 36.6569 2.21943L36.7406 2.13346L36.9918 1.70362C37.8289 0.156203 39.7543 -0.359604 41.2611 0.500073L51.8088 6.77572C53.1482 7.63539 53.6504 9.61265 52.8133 11.1601Z" fill="#4C8D86"/>
<path d="M60.3605 103.662C60.4442 104.779 60.0257 105.983 59.2723 106.928C59.1885 107.014 59.1048 107.1 59.0211 107.186C58.184 107.96 57.1794 108.39 56.0912 108.39H56.0075C54.9192 108.39 53.9147 108.046 53.0776 107.272L51.7382 106.069L46.9666 101.684L22.8576 79.6766C21.9368 78.817 21.4344 77.6994 21.3507 76.5818C21.267 75.3783 21.6019 74.1747 22.439 73.2291C22.5227 73.1431 22.6064 73.0571 22.6902 72.9712C23.5273 72.1115 24.6155 71.6816 25.7875 71.6816C26.8758 71.6816 27.8803 72.0255 28.7174 72.7992L55.3378 97.1281L56.0075 97.7299L58.77 100.309L58.8537 100.395C59.8582 101.341 60.3605 102.544 60.3605 103.662Z" fill="#4C8D86"/>
<path d="M59.0057 107.272L89.2257 79.6767C91.0674 78.0433 91.2348 75.1204 89.5606 73.2291C87.97 71.3378 85.1238 71.1659 83.2822 72.8852L53.0622 100.481C51.2205 102.114 51.0531 105.037 52.7273 106.928C54.3179 108.82 57.1641 108.992 59.0057 107.272Z" fill="#4C8D86"/>
<path d="M63.8881 12.7935L74.4358 6.51784C75.9426 5.65816 76.4449 3.68091 75.6077 2.13349L75.3566 1.61768C74.5194 0.0702657 72.5941 -0.445542 71.0873 0.414135L60.5396 6.68978C59.0328 7.54946 58.5305 9.52671 59.3676 11.0741L59.6187 11.5899C60.4559 13.1374 62.3813 13.6532 63.8881 12.7935Z" fill="#4C8D86"/>
<path d="M55.3226 112C53.3134 112 51.639 110.281 51.639 108.218V105.467C51.639 103.403 53.3134 101.684 55.3226 101.684C57.3319 101.684 59.0062 103.403 59.0062 105.467V108.218C59.0062 110.367 57.3319 112 55.3226 112Z" fill="#4C8D86"/>
<path d="M99.535 37.896C99.535 53.1982 86.3922 64.7179 66.5525 82.0834C63.3715 84.9203 59.7719 88.0151 56.0885 91.3679C55.8374 91.1959 55.67 90.938 55.4188 90.7661C51.9029 87.6713 48.6382 84.7484 45.6245 82.0834C25.7848 64.7179 12.6421 53.1982 12.6421 37.896C12.6421 24.485 21.5155 14.3408 33.4026 14.3408C37.5045 14.3408 41.3553 15.7163 44.7037 18.3813C48.1359 21.1323 50.3962 24.6569 51.7355 27.15L55.5026 34.1994L56.1723 35.4889L60.609 27.15C61.9484 24.6569 64.2086 21.1323 67.6408 18.3813C70.9893 15.7163 74.7563 14.3408 78.9419 14.3408C90.5779 14.3408 99.535 24.485 99.535 37.896Z" fill="#1F7168"/>
<path opacity="0.64" d="M55.4089 34.1657V90.7114C51.8825 87.613 48.6081 84.6868 45.5855 82.0187C25.6869 64.6332 12.5051 53.1003 12.5051 37.7805C12.5051 24.3541 21.405 14.1982 33.3273 14.1982C37.4414 14.1982 41.3035 15.5753 44.662 18.2434C48.1043 20.9975 50.3712 24.5262 51.7146 27.0222L55.4089 34.1657Z" fill="#1F7168"/>
<path d="M70.5701 49.605H61.1106V39.8906H50.8978V49.605H41.4384V60.093H50.8978V69.8074H61.1106V60.093H70.5701V49.605Z" fill="#FEFFFF"/>
<path d="M28.2784 164.166H23.2052C22.661 166.531 21.7668 168.499 20.5228 170.069C19.2983 171.639 17.8502 172.842 16.1786 173.677C14.507 174.532 12.6798 175.028 10.6972 175.168C8.71461 175.327 6.70283 175.148 4.6619 174.631V167.654C5.73096 168.111 6.87777 168.419 8.10233 168.578C9.32689 168.737 10.4931 168.698 11.6011 168.459C12.709 168.221 13.6906 167.754 14.5458 167.058C15.4011 166.382 16.0036 165.418 16.3535 164.166C15.5955 164.305 14.7402 164.365 13.7878 164.345C12.8548 164.325 11.8926 164.206 10.9013 163.987C9.91001 163.748 8.93814 163.401 7.9857 162.943C7.05271 162.466 6.20718 161.83 5.44912 161.035C4.71049 160.24 4.11765 159.266 3.67059 158.113C3.22353 156.96 3 155.599 3 154.029V147.946C3 146.456 3.27212 145.054 3.81637 143.742C4.38006 142.431 5.13812 141.288 6.09055 140.314C7.06242 139.32 8.1898 138.545 9.47267 137.988C10.775 137.412 12.155 137.123 13.6128 137.123C15.0706 137.123 16.441 137.412 17.7239 137.988C19.0067 138.545 20.1244 139.32 21.0768 140.314C22.0487 141.288 22.8165 142.431 23.3802 143.742C23.9438 145.054 24.2257 146.456 24.2257 147.946C24.2257 149.636 24.2257 151.007 24.2257 152.061C24.2257 153.114 24.216 153.969 24.1965 154.625C24.1965 155.281 24.1868 155.798 24.1674 156.175C24.1674 156.533 24.1576 156.871 24.1382 157.189H28.2784V164.166ZM9.8517 148.095V153.253C9.8517 153.889 9.9586 154.456 10.1724 154.953C10.3862 155.43 10.6681 155.837 11.0179 156.175C11.3678 156.513 11.7663 156.782 12.2133 156.98C12.6604 157.159 13.1269 157.259 13.6128 157.278H17.4031V148.095C17.4031 147.38 17.2962 146.764 17.0824 146.247C16.8686 145.73 16.577 145.303 16.2077 144.965C15.8579 144.627 15.4497 144.388 14.9832 144.249C14.5361 144.09 14.0793 144.021 13.6128 144.041C13.1269 144.06 12.6604 144.17 12.2133 144.369C11.7663 144.547 11.3678 144.816 11.0179 145.174C10.6681 145.511 10.3862 145.929 10.1724 146.426C9.9586 146.903 9.8517 147.459 9.8517 148.095Z" fill="#1F7168"/>
<path d="M38.8912 153.253C38.8912 153.889 38.9981 154.456 39.2119 154.953C39.4258 155.43 39.7076 155.837 40.0575 156.175C40.4073 156.493 40.8058 156.742 41.2529 156.921C41.7194 157.1 42.1859 157.189 42.6524 157.189V164.166C41.2529 164.166 39.9408 163.917 38.7163 163.42C37.4917 162.904 36.4032 162.198 35.4508 161.304C34.4984 162.198 33.4099 162.904 32.1853 163.42C30.9608 163.917 29.6487 164.166 28.2492 164.166V157.189C28.7157 157.189 29.1725 157.1 29.6196 156.921C30.0861 156.742 30.4943 156.493 30.8441 156.175C31.2134 155.837 31.505 155.43 31.7188 154.953C31.9521 154.456 32.0687 153.889 32.0687 153.253V141.864H38.8912V153.253ZM31.3106 128L35.3925 132.174L39.4743 128L44.3726 132.979L39.4743 137.988L35.3925 133.844L31.3106 137.988L26.4124 132.979L31.3106 128Z" fill="#1F7168"/>
<path d="M53.2361 153.253C53.2361 153.889 53.343 154.456 53.5568 154.953C53.7706 155.43 54.0524 155.837 54.4023 156.175C54.7522 156.493 55.1506 156.742 55.5977 156.921C56.0642 157.1 56.5307 157.189 56.9972 157.189V164.166C55.5977 164.166 54.2857 163.917 53.0611 163.42C51.8366 162.904 50.7481 162.198 49.7956 161.304C48.8432 162.198 47.7547 162.904 46.5301 163.42C45.3056 163.917 43.9936 164.166 42.5941 164.166V157.189C43.0606 157.189 43.5173 157.1 43.9644 156.921C44.4309 156.742 44.8391 156.493 45.189 156.175C45.5583 155.837 45.8498 155.43 46.0636 154.953C46.2969 154.456 46.4135 153.889 46.4135 153.253V141.864H53.2361V153.253ZM45.6263 167.893L49.7082 172.067L53.79 167.893L58.6883 172.872L53.79 177.881L49.7082 173.736L45.6263 177.881L40.7281 172.872L45.6263 167.893Z" fill="#1F7168"/>
<path d="M67.5809 141.864V153.343C67.5809 154.834 67.299 156.245 66.7354 157.577C66.1717 158.888 65.4039 160.031 64.432 161.005C63.4796 161.979 62.3522 162.755 61.0499 163.331C59.767 163.887 58.3967 164.166 56.9389 164.166V157.189C57.4054 157.189 57.8622 157.1 58.3092 156.921C58.7757 156.742 59.1839 156.493 59.5338 156.175C59.9031 155.837 60.1947 155.43 60.4085 154.953C60.6417 154.456 60.7583 153.889 60.7583 153.253V141.864H67.5809ZM62.4786 168.012L67.4059 173.021L62.4786 178L57.6095 173.021L62.4786 168.012Z" fill="#1F7168"/>
<path d="M96.737 164.166H91.6639C91.1196 166.531 90.2255 168.499 88.9815 170.069C87.7569 171.639 86.3089 172.842 84.6372 173.677C82.9656 174.532 81.1385 175.028 79.1559 175.168C77.1733 175.327 75.1615 175.148 73.1206 174.631V167.654C74.1896 168.111 75.3364 168.419 76.561 168.578C77.7855 168.737 78.9518 168.698 80.0597 168.459C81.1676 168.221 82.1492 167.754 83.0045 167.058C83.8597 166.382 84.4623 165.418 84.8122 164.166C84.0541 164.305 83.1989 164.365 82.2464 164.345C81.3134 164.325 80.3513 164.206 79.36 163.987C78.3687 163.748 77.3968 163.401 76.4444 162.943C75.5114 162.466 74.6658 161.83 73.9078 161.035C73.1691 160.24 72.5763 159.266 72.1292 158.113C71.6822 156.96 71.4586 155.599 71.4586 154.029V147.946C71.4586 146.456 71.7308 145.054 72.275 143.742C72.8387 142.431 73.5968 141.288 74.5492 140.314C75.5211 139.32 76.6484 138.545 77.9313 137.988C79.2336 137.412 80.6137 137.123 82.0715 137.123C83.5293 137.123 84.8996 137.412 86.1825 137.988C87.4654 138.545 88.583 139.32 89.5355 140.314C90.5073 141.288 91.2751 142.431 91.8388 143.742C92.4025 145.054 92.6843 146.456 92.6843 147.946C92.6843 149.636 92.6843 151.007 92.6843 152.061C92.6843 153.114 92.6746 153.969 92.6552 154.625C92.6552 155.281 92.6455 155.798 92.626 156.175C92.626 156.533 92.6163 156.871 92.5969 157.189H96.737V164.166ZM78.3103 148.095V153.253C78.3103 153.889 78.4173 154.456 78.6311 154.953C78.8449 155.43 79.1267 155.837 79.4766 156.175C79.8265 156.513 80.2249 156.782 80.672 156.98C81.1191 157.159 81.5856 157.259 82.0715 157.278H85.8618V148.095C85.8618 147.38 85.7549 146.764 85.5411 146.247C85.3273 145.73 85.0357 145.303 84.6664 144.965C84.3165 144.627 83.9083 144.388 83.4418 144.249C82.9948 144.09 82.538 144.021 82.0715 144.041C81.5856 144.06 81.1191 144.17 80.672 144.369C80.2249 144.547 79.8265 144.816 79.4766 145.174C79.1267 145.511 78.8449 145.929 78.6311 146.426C78.4173 146.903 78.3103 147.459 78.3103 148.095Z" fill="#1F7168"/>
<path d="M107.35 141.864V153.343C107.35 154.834 107.068 156.245 106.504 157.577C105.941 158.888 105.173 160.031 104.201 161.005C103.249 161.979 102.121 162.755 100.819 163.331C99.536 163.887 98.1657 164.166 96.7079 164.166V157.189C97.1744 157.189 97.6312 157.1 98.0782 156.921C98.5447 156.742 98.9529 156.493 99.3028 156.175C99.6721 155.837 99.9637 155.43 100.177 154.953C100.411 154.456 100.527 153.889 100.527 153.253V141.864H107.35ZM104.026 128.179L108.924 133.188L104.026 138.167L99.157 133.188L104.026 128.179Z" fill="#1F7168"/>
</svg>
